<svg width="800" height="800" viewBox="0 0 800 800" fill="none" xmlns="http://www.w3.org/2000/svg">
<rect width="800" height="800" fill="white"/>
<path d="M515.63 268.051C525.097 252.642 532.394 234.467 537.522 213.526C542.65 192.19 538.903 172.83 526.28 155.445C514.052 138.06 486.638 129.763 444.037 130.553C425.893 130.948 409.129 132.133 393.745 134.109L371.853 369.99C423.132 358.136 466.127 348.456 500.838 340.949C535.944 333.047 553.497 329.293 553.497 329.688C553.497 330.874 555.864 355.963 560.597 404.957C565.331 453.555 567.697 477.855 567.697 477.855L366.528 430.441L349.37 611.204L492.555 636.689C492.555 636.689 488.413 642.616 480.13 654.469C471.846 665.927 462.577 680.546 452.321 698.326C442.065 716.106 432.401 735.664 423.329 757L205.593 585.72L323.928 606.463L294.344 413.254L240.501 400.808C240.501 400.808 257.266 396.857 290.794 388.955L257.068 167.891C227.879 177.768 200.07 188.634 173.642 200.487C147.214 212.341 134 218.267 134 218.267C180.94 170.854 244.051 131.343 323.336 99.7342C402.62 67.7303 474.805 48.9626 539.889 43.431C563.161 41.8506 582.687 44.6164 598.465 51.7283C614.637 58.4452 627.259 67.7303 636.332 79.5836C645.799 91.4369 652.504 103.488 656.449 115.736C660.393 127.985 662.957 139.048 664.14 148.925C665.324 158.803 665.915 163.742 665.915 163.742C666.31 192.19 665.324 217.477 662.957 239.603C660.59 261.334 657.829 278.917 654.674 292.35C651.518 305.784 649.94 312.501 649.94 312.501L515.63 268.051Z" fill="#BE904C"/>
</svg>
